<svg width="533" height="533" viewBox="0 0 533 533" fill="none" xmlns="http://www.w3.org/2000/svg">
<path opacity="0.149" d="M266.72 393.98C337.004 393.98 393.98 337.004 393.98 266.72C393.98 196.436 337.004 139.46 266.72 139.46C196.436 139.46 139.46 196.436 139.46 266.72C139.46 337.004 196.436 393.98 266.72 393.98Z" stroke="#333333"/>
<path opacity="0.149" d="M266.72 486.63C388.173 486.63 486.63 388.173 486.63 266.72C486.63 145.267 388.173 46.8098 266.72 46.8098C145.267 46.8098 46.8096 145.267 46.8096 266.72C46.8096 388.173 145.267 486.63 266.72 486.63Z" stroke="#333333"/>
<path opacity="0.149" d="M266.72 532.44C413.473 532.44 532.44 413.473 532.44 266.72C532.44 119.967 413.473 1 266.72 1C119.967 1 1 119.967 1 266.72C1 413.473 119.967 532.44 266.72 532.44Z" stroke="#333333"/>
</svg>
