<svg xmlns="http://www.w3.org/2000/svg" xmlns:xlink="http://www.w3.org/1999/xlink" width="1145" height="604" viewBox="0 0 1145 604"><defs><clipPath id="a"><rect width="1145" height="604" transform="translate(377 2587)" fill="#00388f"/></clipPath></defs><g transform="translate(-377 -2587)" clip-path="url(#a)"><path d="M1116,3112a10,10,0,0,1-10-10V2929a10,10,0,0,1,10-10h264a10,10,0,0,1,10,10v173a10,10,0,0,1-10,10Zm-297,0a10,10,0,0,1-10-10V2929a10,10,0,0,1,10-10h264a10,10,0,0,1,10,10v173a10,10,0,0,1-10,10Zm-299,0a10,10,0,0,1-10-10V2929a10,10,0,0,1,10-10H784a10,10,0,0,1,10,10v173a10,10,0,0,1-10,10Z" fill="#fff"/><path d="M1472.981,3065.369a11.63,11.63,0,0,1-5.577-1.4l-30.33-16.856-30.33,16.158a11.621,11.621,0,0,1-17.082-11.624l5.927-36.268-24.985-25.573a11.51,11.51,0,0,1,6.624-19.411l34.049-5.231,15.223-32.548a11.618,11.618,0,0,1,21.149,0l15.224,32.548,34.048,5.231a11.51,11.51,0,0,1,6.624,19.411l-24.984,25.573,5.926,36.268a11.607,11.607,0,0,1-11.418,13.717Zm-30.33-41.615,14.991,8.253-3.022-18.482a11.627,11.627,0,0,1,3.138-10l13.247-13.6-17.78-2.673a11.623,11.623,0,0,1-8.716-6.51l-7.437-15.926-7.9,15.926a11.623,11.623,0,0,1-8.716,6.51l-17.78,2.673,13.247,13.6a11.627,11.627,0,0,1,3.138,10l-3.022,18.482,14.991-8.253a11.618,11.618,0,0,1,11.62,0ZM1658.911,2984a11.614,11.614,0,0,1-5.578-1.4L1623,2965.749l-30.329,16.158a11.62,11.62,0,0,1-17.083-11.623l5.927-36.268-24.984-25.573a11.51,11.51,0,0,1,6.624-19.411l34.048-5.232,15.224-32.548a11.619,11.619,0,0,1,21.149,0L1648.8,2883.8l34.048,5.232a11.51,11.51,0,0,1,6.624,19.411l-24.984,25.573,5.927,36.268A11.607,11.607,0,0,1,1659,2984Zm-30.33-41.614,14.99,8.253-3.021-18.482a11.632,11.632,0,0,1,3.137-10l13.248-13.6-17.78-2.674a11.619,11.619,0,0,1-8.716-6.509L1623,2883.45l-7.9,15.927a11.619,11.619,0,0,1-8.715,6.509l-17.779,2.674,13.247,13.6a11.627,11.627,0,0,1,3.137,10l-3.021,18.482,14.99-8.253a11.615,11.615,0,0,1,11.621,0Zm-329.909,29.99a11.6,11.6,0,0,1-5.577-1.4l-30.33-16.855-30.33,16.159a11.621,11.621,0,0,1-17.082-11.625l5.927-36.268-24.985-25.573a11.511,11.511,0,0,1,6.624-19.412l34.049-5.231,15.223-32.549a11.619,11.619,0,0,1,21.149,0l15.223,32.549,34.049,5.231a11.51,11.51,0,0,1,6.623,19.412l-24.984,25.573,5.927,36.268a11.6,11.6,0,0,1-11.418,13.716Zm-30.329-41.614,14.99,8.253-3.021-18.482a11.624,11.624,0,0,1,3.137-10l13.247-13.6-17.78-2.673a11.624,11.624,0,0,1-8.716-6.51l-7.437-15.926-7.9,15.926a11.623,11.623,0,0,1-8.716,6.51l-17.78,2.673,13.247,13.6a11.628,11.628,0,0,1,3.138,10l-3.021,18.482,14.99-8.253a11.619,11.619,0,0,1,11.621,0Zm471.912-132.748a11.63,11.63,0,0,1-5.577-1.4l-30.33-16.855L1674.6,2795.92a11.621,11.621,0,0,1-17.082-11.623l5.926-36.268-24.984-25.573a11.511,11.511,0,0,1,6.624-19.412l34.048-5.231,15.224-32.548a11.619,11.619,0,0,1,21.149,0l15.224,32.548,34.048,5.231a11.155,11.155,0,0,1,6.044,19.412l-24.985,25.573,5.927,36.268a11.607,11.607,0,0,1-11.418,13.716Zm-29.749-41.614,14.99,8.253-3.021-18.483a11.629,11.629,0,0,1,3.138-10l12.666-13.6L1720.5,2719.9a11.624,11.624,0,0,1-8.715-6.511l-7.438-15.925-7.321,15.925a11.627,11.627,0,0,1-8.716,6.511l-17.78,2.673,13.247,13.6a11.626,11.626,0,0,1,3.137,10l-3.021,18.483,14.99-8.253a11.613,11.613,0,0,1,11.621,0Zm-504.8,41.614a11.637,11.637,0,0,1-5.578-1.4l-30.329-16.855-30.33,16.158a11.621,11.621,0,0,1-17.083-11.623l5.927-36.268-24.984-25.573a11.511,11.511,0,0,1,6.624-19.412l34.048-5.231,15.224-32.548a11.619,11.619,0,0,1,21.149,0l15.223,32.548,34.048,5.231a11.511,11.511,0,0,1,6.624,19.412l-24.984,25.573,5.927,36.268a11.607,11.607,0,0,1-11.418,13.716Zm-30.33-41.614,14.99,8.253-3.021-18.483a11.628,11.628,0,0,1,3.137-10l13.248-13.6-17.78-2.673a11.625,11.625,0,0,1-8.716-6.511l-7.437-15.925-7.437,15.925a11.624,11.624,0,0,1-8.716,6.511l-17.779,2.673,12.783,13.6a11.625,11.625,0,0,1,3.137,10l-3.021,18.483,14.99-8.253a11.613,11.613,0,0,1,11.621,0Zm483.534-144.373a11.625,11.625,0,0,1-5.578-1.4L1623,2593.776l-30.329,16.39a11.621,11.621,0,0,1-17.083-11.624l5.927-36.267-24.984-25.806a11.512,11.512,0,0,1,6.624-19.413l34.048-5.231,15.224-32.548a11.618,11.618,0,0,1,21.149,0l15.224,32.548,34.048,5.231a11.511,11.511,0,0,1,6.624,19.413l-24.984,25.573,5.927,36.267A11.607,11.607,0,0,1,1659,2612.026Zm-30.33-41.615,14.99,8.254-3.021-18.483a11.628,11.628,0,0,1,3.137-10l13.248-13.6-17.78-2.674a11.618,11.618,0,0,1-8.716-6.51L1623,2511.476l-7.437,15.926a11.619,11.619,0,0,1-8.716,6.51l-18.245,2.674,13.248,13.6a11.625,11.625,0,0,1,3.137,10l-3.021,18.483,14.99-8.254a11.619,11.619,0,0,1,11.621,0Zm-341.53,41.615a11.622,11.622,0,0,1-5.577-1.4l-30.33-16.855-30.33,16.39a11.621,11.621,0,0,1-17.082-11.624l5.927-36.267-24.984-25.806a11.511,11.511,0,0,1,6.623-19.413l34.049-5.231,15.223-32.548a11.619,11.619,0,0,1,21.15,0l15.223,32.548,34.049,5.231a11.512,11.512,0,0,1,6.624,19.413l-24.985,25.573,5.927,36.267a11.607,11.607,0,0,1-11.418,13.717Zm-30.329-41.615,14.99,8.254-3.021-18.483a11.625,11.625,0,0,1,3.137-10l13.248-13.6-17.78-2.674a11.617,11.617,0,0,1-8.715-6.51l-7.438-15.926-7.437,15.926a11.62,11.62,0,0,1-8.716,6.51l-18.245,2.674,13.248,13.6a11.627,11.627,0,0,1,3.137,10l-3.021,18.483,14.99-8.254a11.619,11.619,0,0,1,11.621,0Zm216.259-39.755a11.618,11.618,0,0,1-5.577-1.394l-30.33-16.855-30.33,16.389a11.618,11.618,0,0,1-17.082-11.623l5.927-36.267L1370.6,2455.1a11.511,11.511,0,0,1,6.624-19.412l34.049-5.231,15.223-32.548a11.619,11.619,0,0,1,21.149,0l15.224,32.548,34.048,5.231a11.51,11.51,0,0,1,6.624,19.412l-24.984,25.573,5.926,36.267a11.605,11.605,0,0,1-11.418,13.717Zm-30.33-41.614,14.991,8.254-3.022-18.483a11.628,11.628,0,0,1,3.138-10l13.247-13.6-17.78-2.674a11.622,11.622,0,0,1-8.716-6.51l-7.437-15.926-7.438,15.926a11.62,11.62,0,0,1-8.716,6.51l-17.779,2.674,12.783,13.6a11.628,11.628,0,0,1,3.138,10l-3.022,18.483,14.991-8.254a11.618,11.618,0,0,1,11.62,0Z" fill="#f8f8f8" opacity="0.102"/></g></svg>