<svg width="422" height="479" viewBox="0 0 422 479" fill="none" xmlns="http://www.w3.org/2000/svg">
<path opacity="0.102" d="M372.981 478.369C371.034 478.376 369.117 477.895 367.404 476.969L337.074 460.113L306.744 476.271C304.868 477.29 302.748 477.772 300.617 477.666C298.485 477.559 296.424 476.868 294.659 475.667C292.894 474.466 291.495 472.802 290.613 470.858C289.732 468.914 289.402 466.765 289.662 464.647L295.589 428.379L270.604 402.806C269.125 401.283 268.097 399.381 267.632 397.31C267.167 395.239 267.283 393.08 267.969 391.071C268.654 389.062 269.882 387.282 271.516 385.927C273.15 384.573 275.127 383.696 277.228 383.395L311.277 378.164L326.5 345.616C327.424 343.586 328.912 341.865 330.787 340.658C332.662 339.452 334.845 338.81 337.074 338.81C339.304 338.81 341.487 339.452 343.362 340.658C345.237 341.865 346.725 343.586 347.649 345.616L362.873 378.164L396.921 383.395C399.022 383.696 400.999 384.573 402.633 385.927C404.267 387.282 405.494 389.062 406.18 391.071C406.865 393.08 406.982 395.239 406.517 397.31C406.052 399.381 405.023 401.283 403.545 402.806L378.561 428.379L384.487 464.647C384.797 466.322 384.734 468.044 384.303 469.692C383.872 471.34 383.084 472.873 381.994 474.182C380.904 475.492 379.54 476.545 377.997 477.268C376.455 477.99 374.772 478.364 373.069 478.364L372.981 478.369ZM342.651 436.754L357.642 445.007L354.62 426.525C354.324 424.729 354.453 422.888 354.998 421.151C355.543 419.414 356.489 417.829 357.758 416.525L371.005 402.925L353.225 400.252C351.351 399.96 349.578 399.214 348.058 398.079C346.539 396.945 345.321 395.455 344.509 393.742L337.072 377.816L329.172 393.742C328.36 395.455 327.142 396.945 325.623 398.079C324.103 399.214 322.33 399.96 320.456 400.252L302.676 402.925L315.923 416.525C317.192 417.829 318.138 419.414 318.683 421.151C319.228 422.888 319.357 424.729 319.061 426.525L316.039 445.007L331.03 436.754C332.796 435.734 334.8 435.197 336.84 435.197C338.88 435.197 340.885 435.734 342.651 436.754ZM558.911 397C556.964 397.008 555.046 396.527 553.333 395.6L523 378.749L492.671 394.907C490.795 395.926 488.675 396.409 486.543 396.303C484.411 396.197 482.35 395.505 480.585 394.305C478.82 393.104 477.42 391.44 476.539 389.496C475.657 387.552 475.328 385.402 475.588 383.284L481.515 347.016L456.531 321.443C455.052 319.92 454.024 318.018 453.559 315.947C453.094 313.876 453.21 311.717 453.896 309.708C454.581 307.699 455.809 305.919 457.443 304.564C459.077 303.21 461.054 302.333 463.155 302.032L497.203 296.8L512.427 264.252C513.351 262.222 514.839 260.502 516.714 259.295C518.589 258.089 520.772 257.448 523.001 257.448C525.231 257.448 527.414 258.089 529.289 259.295C531.164 260.502 532.652 262.222 533.576 264.252L548.8 296.8L582.848 302.032C584.949 302.333 586.926 303.21 588.56 304.564C590.194 305.919 591.421 307.699 592.107 309.708C592.792 311.717 592.909 313.876 592.444 315.947C591.979 318.018 590.951 319.92 589.472 321.443L564.488 347.016L570.415 383.284C570.724 384.958 570.661 386.681 570.231 388.328C569.8 389.976 569.012 391.509 567.923 392.818C566.833 394.127 565.469 395.18 563.927 395.903C562.385 396.625 560.703 397 559 397H558.911ZM528.581 355.386L543.571 363.639L540.55 345.157C540.254 343.361 540.384 341.52 540.928 339.783C541.473 338.047 542.418 336.462 543.687 335.157L556.935 321.557L539.155 318.883C537.281 318.591 535.507 317.846 533.988 316.711C532.469 315.577 531.25 314.088 530.439 312.374L523 296.45L515.1 312.377C514.289 314.09 513.07 315.58 511.551 316.714C510.032 317.849 508.258 318.594 506.385 318.886L488.606 321.56L501.853 335.16C503.122 336.465 504.067 338.049 504.612 339.786C505.157 341.523 505.286 343.364 504.99 345.16L501.969 363.642L516.959 355.389C518.725 354.368 520.729 353.831 522.769 353.831C524.81 353.831 526.813 354.368 528.58 355.389L528.581 355.386ZM198.672 385.376C196.725 385.385 194.807 384.903 193.095 383.976L162.765 367.121L132.435 383.28C130.559 384.299 128.439 384.781 126.307 384.675C124.175 384.568 122.114 383.876 120.35 382.676C118.585 381.475 117.185 379.811 116.304 377.867C115.422 375.923 115.093 373.773 115.353 371.655L121.28 335.387L96.295 309.814C94.8166 308.291 93.7879 306.389 93.3229 304.318C92.858 302.247 92.9747 300.087 93.6602 298.079C94.3457 296.07 95.5732 294.29 97.2072 292.935C98.8412 291.58 100.818 290.703 102.919 290.402L136.968 285.171L152.191 252.622C153.115 250.593 154.603 248.872 156.478 247.666C158.353 246.459 160.536 245.817 162.765 245.817C164.995 245.817 167.178 246.459 169.053 247.666C170.928 248.872 172.416 250.593 173.34 252.622L188.563 285.171L222.612 290.402C224.713 290.703 226.69 291.58 228.324 292.935C229.958 294.289 231.186 296.07 231.871 298.079C232.557 300.088 232.673 302.247 232.208 304.318C231.743 306.389 230.714 308.291 229.235 309.814L204.251 335.387L210.178 371.655C210.489 373.33 210.427 375.053 209.996 376.701C209.566 378.35 208.778 379.883 207.688 381.192C206.598 382.502 205.233 383.555 203.69 384.277C202.147 384.999 200.464 385.373 198.76 385.371L198.672 385.376ZM168.343 343.762L183.333 352.015L180.312 333.533C180.015 331.737 180.145 329.896 180.69 328.159C181.234 326.422 182.18 324.838 183.449 323.533L196.696 309.933L178.916 307.26C177.042 306.968 175.269 306.222 173.749 305.087C172.23 303.953 171.012 302.463 170.2 300.75L162.763 284.824L154.863 300.75C154.051 302.464 152.833 303.953 151.314 305.087C149.794 306.222 148.021 306.968 146.147 307.26L128.367 309.933L141.614 323.533C142.883 324.838 143.828 326.422 144.373 328.159C144.919 329.896 145.048 331.737 144.752 333.533L141.731 352.015L156.721 343.762C158.487 342.742 160.492 342.205 162.531 342.205C164.571 342.205 166.576 342.742 168.343 343.762ZM640.255 211.014C638.308 211.021 636.39 210.54 634.678 209.614L604.348 192.759L574.6 208.92C572.724 209.938 570.605 210.421 568.473 210.315C566.341 210.208 564.28 209.517 562.516 208.316C560.751 207.115 559.351 205.452 558.47 203.508C557.588 201.564 557.259 199.415 557.518 197.297L563.444 161.029L538.46 135.456C536.981 133.933 535.953 132.031 535.488 129.96C535.023 127.889 535.14 125.729 535.825 123.72C536.511 121.712 537.738 119.931 539.372 118.577C541.006 117.222 542.983 116.345 545.084 116.044L579.132 110.813L594.356 78.2646C595.28 76.2354 596.768 74.5151 598.643 73.3086C600.518 72.1021 602.701 71.4604 604.93 71.4604C607.16 71.4604 609.343 72.1021 611.218 73.3086C613.093 74.5151 614.581 76.2354 615.505 78.2646L630.729 110.813L664.777 116.044C666.907 116.306 668.916 117.177 670.563 118.553C672.211 119.928 673.426 121.75 674.064 123.799C674.702 125.848 674.736 128.038 674.16 130.105C673.585 132.173 672.426 134.031 670.821 135.456L645.836 161.029L651.763 197.297C652.072 198.972 652.009 200.694 651.579 202.342C651.148 203.99 650.359 205.523 649.27 206.832C648.18 208.141 646.816 209.194 645.273 209.917C643.731 210.639 642.048 211.013 640.345 211.013L640.255 211.014ZM610.506 169.4L625.496 177.653L622.475 159.17C622.179 157.374 622.308 155.533 622.853 153.796C623.398 152.059 624.344 150.475 625.613 149.17L638.279 135.57L620.5 132.9C618.626 132.608 616.853 131.862 615.334 130.727C613.815 129.592 612.596 128.102 611.785 126.389L604.347 110.464L597.026 126.389C596.214 128.102 594.996 129.592 593.477 130.727C591.957 131.861 590.184 132.607 588.31 132.9L570.53 135.573L583.777 149.173C585.046 150.478 585.991 152.062 586.536 153.799C587.081 155.536 587.21 157.377 586.914 159.173L583.893 177.656L598.883 169.403C600.649 168.382 602.653 167.844 604.693 167.844C606.734 167.844 608.738 168.382 610.504 169.403L610.506 169.4ZM105.706 211.014C103.759 211.021 101.841 210.54 100.128 209.614L69.7989 192.759L39.4689 208.917C37.5934 209.936 35.4735 210.419 33.3416 210.312C31.2098 210.206 29.1485 209.514 27.3837 208.314C25.619 207.113 24.2191 205.45 23.3375 203.506C22.4559 201.562 22.1266 199.412 22.3859 197.294L28.3129 161.026L3.32893 135.453C1.85049 133.93 0.821982 132.028 0.357005 129.957C-0.107972 127.886 0.00868428 125.726 0.694163 123.718C1.37964 121.709 2.60719 119.929 4.24116 118.574C5.87513 117.219 7.85192 116.342 9.95295 116.041L44.0009 110.81L59.2249 78.2617C60.1489 76.2325 61.6371 74.5119 63.5122 73.3054C65.3872 72.0989 67.5698 71.4575 69.7995 71.4575C72.0292 71.4575 74.2117 72.0989 76.0867 73.3054C77.9618 74.5119 79.45 76.2325 80.374 78.2617L95.597 110.81L129.645 116.041C131.746 116.342 133.723 117.219 135.357 118.574C136.991 119.929 138.218 121.709 138.904 123.718C139.589 125.726 139.706 127.886 139.241 129.957C138.776 132.028 137.747 133.93 136.269 135.453L111.285 161.026L117.212 197.294C117.521 198.969 117.459 200.691 117.028 202.339C116.597 203.987 115.808 205.52 114.719 206.829C113.629 208.138 112.265 209.191 110.722 209.914C109.18 210.636 107.497 211.01 105.794 211.01L105.706 211.014ZM75.3759 169.4L90.3659 177.653L87.3449 159.17C87.0486 157.374 87.1781 155.533 87.723 153.796C88.2678 152.06 89.2129 150.475 90.482 149.17L103.73 135.57L85.9499 132.897C84.0762 132.605 82.3025 131.859 80.7833 130.724C79.2641 129.589 78.0455 128.1 77.234 126.386L69.7969 110.461L62.3599 126.386C61.5484 128.1 60.33 129.589 58.8107 130.724C57.2915 131.859 55.5177 132.605 53.644 132.897L35.8649 135.57L48.6479 149.17C49.9172 150.475 50.8624 152.059 51.4073 153.796C51.9522 155.533 52.0816 157.374 51.785 159.17L48.764 177.653L63.754 169.4C65.5203 168.379 67.5243 167.842 69.5644 167.842C71.6045 167.842 73.6096 168.379 75.3759 169.4ZM558.91 25.0269C556.963 25.0347 555.045 24.5532 553.332 23.6267L523 6.77563L492.671 23.1658C490.795 24.1849 488.675 24.6677 486.543 24.5613C484.411 24.4549 482.35 23.7633 480.585 22.5625C478.82 21.3617 477.421 19.698 476.539 17.7539C475.657 15.8098 475.328 13.6605 475.588 11.5417L481.515 -24.7253L456.531 -50.5312C455.053 -52.0544 454.024 -53.9565 453.559 -56.0276C453.094 -58.0986 453.211 -60.258 453.896 -62.2668C454.582 -64.2757 455.809 -66.056 457.443 -67.4109C459.077 -68.7658 461.054 -69.6426 463.155 -69.9443L497.203 -75.1753L512.427 -107.723C513.351 -109.753 514.839 -111.474 516.714 -112.68C518.589 -113.887 520.772 -114.529 523.001 -114.529C525.231 -114.529 527.414 -113.887 529.289 -112.68C531.164 -111.474 532.652 -109.753 533.576 -107.723L548.8 -75.1753L582.848 -69.9443C584.949 -69.6429 586.926 -68.7662 588.56 -67.4114C590.194 -66.0565 591.422 -64.2761 592.108 -62.2671C592.793 -60.2581 592.91 -58.0987 592.445 -56.0276C591.979 -53.9564 590.951 -52.0542 589.472 -50.5312L564.488 -24.9583L570.415 11.3088C570.725 12.9836 570.662 14.7057 570.231 16.3535C569.8 18.0013 569.013 19.5341 567.923 20.8433C566.834 22.1524 565.47 23.2056 563.927 23.9285C562.385 24.6513 560.703 25.0258 559 25.0256L558.91 25.0269ZM528.58 -16.5881L543.57 -8.33423L540.549 -26.8171C540.253 -28.6132 540.382 -30.4538 540.927 -32.1907C541.472 -33.9276 542.417 -35.5122 543.686 -36.8171L556.934 -50.4172L539.154 -53.0913C537.28 -53.3827 535.506 -54.1282 533.987 -55.2629C532.468 -56.3977 531.249 -57.8873 530.438 -59.6013L523 -75.5242L515.563 -59.5981C514.752 -57.8842 513.533 -56.395 512.014 -55.2603C510.495 -54.1255 508.721 -53.3796 506.847 -53.0881L488.602 -50.4143L501.85 -36.8142C503.119 -35.5094 504.064 -33.9247 504.609 -32.1877C505.154 -30.4508 505.284 -28.6103 504.987 -26.8142L501.966 -8.3313L516.956 -16.5852C518.723 -17.6054 520.726 -18.1426 522.766 -18.1426C524.806 -18.1426 526.81 -17.6054 528.577 -16.5852L528.58 -16.5881ZM187.05 25.0269C185.103 25.0347 183.185 24.5531 181.473 23.6267L151.143 6.77173L120.813 23.1619C118.937 24.1807 116.817 24.6632 114.686 24.5566C112.554 24.4501 110.493 23.7584 108.728 22.5576C106.963 21.3568 105.564 19.6934 104.682 17.7495C103.801 15.8056 103.471 13.6564 103.731 11.5378L109.658 -24.7292L84.6739 -50.5352C83.1952 -52.0581 82.1664 -53.9602 81.7012 -56.0312C81.236 -58.1023 81.3526 -60.2618 82.038 -62.2708C82.7234 -64.2797 83.9509 -66.0601 85.5849 -67.415C87.2189 -68.77 89.1958 -69.6467 91.2969 -69.9482L125.346 -75.1792L140.569 -107.727C141.493 -109.757 142.981 -111.478 144.856 -112.684C146.731 -113.891 148.914 -114.533 151.144 -114.533C153.374 -114.533 155.557 -113.891 157.432 -112.684C159.307 -111.478 160.795 -109.757 161.719 -107.727L176.942 -75.1792L210.991 -69.9482C213.092 -69.6465 215.069 -68.7697 216.703 -67.4148C218.337 -66.0599 219.564 -64.2796 220.249 -62.2708C220.935 -60.2619 221.052 -58.1025 220.587 -56.0315C220.122 -53.9604 219.093 -52.0583 217.615 -50.5352L192.63 -24.9622L198.557 11.3047C198.867 12.9797 198.804 14.7024 198.373 16.3503C197.942 17.9983 197.154 19.5312 196.064 20.8403C194.974 22.1495 193.61 23.2029 192.067 23.9255C190.525 24.6482 188.842 25.0224 187.139 25.0217L187.05 25.0269ZM156.721 -16.5881L171.711 -8.33423L168.69 -26.8171C168.393 -28.6132 168.523 -30.454 169.068 -32.1909C169.612 -33.9278 170.558 -35.5123 171.827 -36.8171L185.075 -50.4172L167.295 -53.0913C165.421 -53.3828 163.647 -54.1284 162.128 -55.2632C160.609 -56.3979 159.391 -57.8874 158.58 -59.6013L151.142 -75.5273L143.705 -59.6013C142.894 -57.8874 141.675 -56.3979 140.156 -55.2632C138.637 -54.1284 136.863 -53.3829 134.989 -53.0913L116.744 -50.4172L129.992 -36.8171C131.261 -35.5122 132.206 -33.9276 132.751 -32.1907C133.296 -30.4538 133.425 -28.6132 133.129 -26.8171L130.108 -8.33423L145.098 -16.5881C146.865 -17.6083 148.868 -18.1455 150.908 -18.1455C152.948 -18.1455 154.952 -17.6083 156.719 -16.5881H156.721ZM372.98 -56.3433C371.034 -56.3334 369.116 -56.8128 367.403 -57.7373L337.073 -74.5923L306.743 -58.2031C304.868 -57.1832 302.747 -56.6999 300.615 -56.8059C298.483 -56.9119 296.422 -57.6033 294.657 -58.8042C292.892 -60.0051 291.492 -61.6691 290.61 -63.6135C289.729 -65.5579 289.401 -67.7073 289.661 -69.8262L295.588 -106.093L270.6 -131.9C269.121 -133.423 268.093 -135.325 267.628 -137.396C267.163 -139.467 267.28 -141.627 267.965 -143.635C268.651 -145.644 269.878 -147.425 271.512 -148.779C273.146 -150.134 275.123 -151.011 277.224 -151.312L311.273 -156.543L326.496 -189.091C327.42 -191.121 328.908 -192.841 330.783 -194.048C332.658 -195.254 334.841 -195.896 337.07 -195.896C339.3 -195.896 341.483 -195.254 343.358 -194.048C345.233 -192.841 346.721 -191.121 347.645 -189.091L362.869 -156.543L396.917 -151.312C399.018 -151.011 400.995 -150.135 402.629 -148.78C404.264 -147.425 405.491 -145.645 406.177 -143.636C406.862 -141.627 406.979 -139.467 406.514 -137.396C406.049 -135.325 405.02 -133.423 403.541 -131.9L378.557 -106.327L384.483 -70.0603C384.793 -68.3853 384.73 -66.6625 384.3 -65.0144C383.869 -63.3663 383.081 -61.8332 381.991 -60.5239C380.901 -59.2147 379.536 -58.1612 377.994 -57.4387C376.451 -56.7162 374.768 -56.3423 373.065 -56.3433H372.98ZM342.65 -97.9573L357.641 -89.7031L354.619 -108.186C354.323 -109.982 354.452 -111.823 354.997 -113.56C355.542 -115.297 356.488 -116.881 357.757 -118.186L371.004 -131.786L353.224 -134.46C351.35 -134.752 349.576 -135.498 348.057 -136.633C346.538 -137.767 345.319 -139.256 344.508 -140.97L337.071 -156.896L329.633 -140.97C328.822 -139.256 327.603 -137.767 326.084 -136.632C324.565 -135.498 322.791 -134.752 320.917 -134.46L303.138 -131.786L315.921 -118.186C317.19 -116.881 318.135 -115.297 318.68 -113.56C319.226 -111.823 319.355 -109.982 319.059 -108.186L316.037 -89.7031L331.028 -97.9573C332.794 -98.9773 334.798 -99.5144 336.838 -99.5144C338.878 -99.5144 340.882 -98.9773 342.648 -97.9573H342.65Z" fill="#F8F8F8"/>
</svg>
