<svg width="75" height="57" viewBox="0 0 75 57" fill="none" xmlns="http://www.w3.org/2000/svg">
<path d="M28.8001 56.9018C28.5327 56.902 28.2707 56.8272 28.0439 56.6858C27.8171 56.5443 27.6346 56.3419 27.5171 56.1018C25.8908 56.631 24.1913 56.901 22.4811 56.9018H18.3811C15.9962 56.9008 13.6407 56.3759 11.4811 55.364C9.33807 54.362 7.4152 52.9445 5.82405 51.1938C2.42239 47.4458 0.555113 42.5553 0.593098 37.4939C0.593098 34.3259 2.81207 29.4109 7.19307 22.8879C8.14807 21.4639 9.10808 20.1109 9.98708 18.9109L7.1371 20.2939C6.94362 20.3885 6.73143 20.4387 6.51607 20.4409C6.19262 20.4408 5.87873 20.3311 5.62569 20.1296C5.37265 19.9281 5.19542 19.6467 5.12288 19.3315C5.05035 19.0163 5.08681 18.6858 5.22634 18.394C5.36586 18.1022 5.60019 17.8663 5.89107 17.7248L11.5741 14.9609L5.89309 12.2019C5.55188 12.0363 5.29043 11.7419 5.16628 11.3835C5.04213 11.0251 5.06547 10.632 5.2311 10.2908C5.39673 9.94955 5.69108 9.68834 6.04946 9.56419C6.40784 9.44004 6.80091 9.46326 7.14211 9.62889L12.8051 12.3779C12.4892 11.3276 11.93 10.3667 11.1731 9.57298C10.6994 9.13093 10.3378 8.58238 10.1181 7.97288C9.75206 6.59288 9.49309 4.65397 10.3721 3.26097C10.6042 2.89092 10.9119 2.5741 11.275 2.33128C11.6381 2.08846 12.0484 1.92494 12.4791 1.85179C12.9117 1.8304 13.3441 1.89812 13.7495 2.05052C14.1549 2.20292 14.5247 2.43673 14.8361 2.73778C15.0359 2.97672 15.2818 3.17302 15.5591 3.31492C15.8364 3.45683 16.1394 3.54162 16.4501 3.56395C16.9131 3.49795 17.3331 2.87999 17.5501 2.50999C18.0858 1.57324 18.941 0.860687 19.9591 0.502912C20.1119 0.451043 20.2727 0.426033 20.4341 0.428938C20.5971 0.426308 20.7594 0.451304 20.9141 0.502912C21.9326 0.8604 22.7882 1.573 23.3241 2.50999C23.5381 2.87999 23.9591 3.49395 24.4241 3.56395C24.735 3.54134 25.0381 3.4565 25.3156 3.31444C25.593 3.17237 25.839 2.97582 26.0391 2.7368C26.35 2.43658 26.719 2.20313 27.1235 2.05076C27.528 1.8984 27.9593 1.83035 28.3911 1.85081C28.8225 1.92355 29.2337 2.0868 29.5976 2.32982C29.9614 2.57284 30.2697 2.89028 30.5021 3.26097C31.3771 4.65397 31.1271 6.59381 30.7551 7.97581C30.5361 8.58546 30.1748 9.1341 29.7011 9.57591C28.4996 10.9791 27.7478 12.711 27.5431 14.5469C28.6011 15.8669 31.6841 19.7958 34.5151 24.1618C35.123 24.1588 35.723 24.3008 36.2651 24.5759L45.8831 14.9419C45.4728 14.1265 45.3662 13.1915 45.5824 12.3047C45.7985 11.4178 46.3232 10.637 47.0626 10.1018C47.8021 9.56654 48.7078 9.31186 49.6178 9.38353C50.5278 9.4552 51.3826 9.8485 52.0291 10.4929L58.8521 17.3259C59.4995 17.9712 59.8958 18.8262 59.9697 19.7373C60.0436 20.6484 59.7903 21.5559 59.2553 22.2971C58.7203 23.0383 57.9387 23.5645 57.0507 23.7812C56.1627 23.998 55.2264 23.8913 54.4101 23.48L53.9731 23.917C54.708 24.417 55.2271 25.1758 55.4266 26.042C55.6261 26.9082 55.4913 27.8178 55.0491 28.5889L73.5161 44.5469C73.9281 44.911 74.2599 45.3569 74.4904 45.8562C74.7209 46.3554 74.8451 46.897 74.8551 47.4468C74.8255 49.0356 74.1936 50.5539 73.0872 51.6946C71.9807 52.8352 70.4823 53.513 68.8951 53.5908H68.7161C68.166 53.5821 67.6237 53.4585 67.1243 53.2278C66.6248 52.997 66.1792 52.6643 65.8161 52.251L49.8771 33.761C49.1072 34.2019 48.1992 34.3356 47.3347 34.1357C46.4703 33.9358 45.7133 33.417 45.2151 32.6828L44.7841 33.115C45.1471 33.836 45.2738 34.6529 45.146 35.4499C45.0181 36.247 44.6424 36.9836 44.0721 37.5549L44.0571 37.5708C43.568 38.061 42.9551 38.4095 42.2836 38.5791C41.6122 38.7487 40.9073 38.7331 40.2441 38.5339C40.1959 39.5414 40.0746 40.544 39.8811 41.5339H50.8671C52.1551 41.536 53.3897 42.0491 54.2999 42.9604C55.2101 43.8718 55.7215 45.1067 55.7221 46.3948V47.9609C57.0647 48.2785 58.261 49.0396 59.1173 50.1213C59.9737 51.2031 60.4401 52.5422 60.4411 53.9219V55.4839C60.4413 55.8627 60.2912 56.2262 60.0236 56.4944C59.756 56.7625 59.3929 56.9133 59.0141 56.9138L28.8001 56.9018ZM30.2281 53.9018V54.0388H57.5841V53.9018C57.5827 53.0376 57.2387 52.2091 56.6274 51.5981C56.0161 50.9872 55.1874 50.6436 54.3231 50.6428H33.4881C32.6235 50.6444 31.7949 50.9889 31.184 51.6006C30.573 52.2123 30.2296 53.0414 30.2291 53.906L30.2281 53.9018ZM9.56508 24.4748C5.62508 30.3488 3.45406 34.9698 3.45406 37.4868C3.45406 46.6128 10.1541 54.0378 18.3851 54.0378H22.4851C24.1787 54.0365 25.8568 53.7151 27.4311 53.0908C27.597 51.8623 28.1313 50.7131 28.9635 49.7944C29.7958 48.8757 30.8869 48.2308 32.0931 47.9448V46.3789C32.0939 45.091 32.6054 43.8558 33.5156 42.9446C34.4257 42.0333 35.6601 41.5202 36.9481 41.5178H36.9651C37.267 40.1954 37.4183 38.8432 37.4161 37.4868C37.406 37.0498 37.3558 36.6148 37.2661 36.187L31.8071 30.719C31.0905 29.9985 30.6882 29.0235 30.6882 28.0073C30.6882 26.9911 31.0905 26.0164 31.8071 25.2959L31.8251 25.2778L31.8331 25.2698C29.1851 21.2378 26.3841 17.6608 25.3591 16.3828H15.5171C14.5421 17.5978 12.0331 20.796 9.56606 24.48L9.56508 24.4748ZM51.9851 31.8149L67.9791 50.3689C68.0863 50.4829 68.2163 50.573 68.3607 50.6333C68.5051 50.6936 68.6606 50.7229 68.8171 50.719C69.6407 50.66 70.4155 50.306 70.9993 49.7221C71.5832 49.1383 71.9371 48.3634 71.996 47.5398C71.9999 47.383 71.9706 47.2272 71.9101 47.0825C71.8496 46.9378 71.7594 46.8074 71.6451 46.6999L53.1141 30.6838L51.9851 31.8149ZM52.8671 47.7839V46.3838C52.8671 45.8533 52.6563 45.3448 52.2813 44.9697C51.9062 44.5946 51.3975 44.3838 50.8671 44.3838H36.9471C36.4167 44.3838 35.9079 44.5946 35.5329 44.9697C35.1578 45.3448 34.9471 45.8533 34.9471 46.3838V47.7839H52.8671ZM33.8371 27.302L33.819 27.3198C33.6371 27.5025 33.5349 27.7499 33.5349 28.0078C33.5349 28.2657 33.6371 28.5131 33.819 28.6958L40.6601 35.5398C40.7504 35.6303 40.8578 35.7022 40.9759 35.7512C41.094 35.8002 41.2207 35.8254 41.3486 35.8254C41.4765 35.8254 41.6031 35.8002 41.7213 35.7512C41.8394 35.7022 41.9467 35.6303 42.0371 35.5398L42.0521 35.5259C42.2344 35.3429 42.3368 35.0952 42.3368 34.8369C42.3368 34.5786 42.2344 34.3309 42.0521 34.1479L35.2141 27.303C35.1239 27.212 35.0166 27.1399 34.8983 27.0908C34.78 27.0417 34.6532 27.0165 34.5251 27.0168H34.4731C34.3313 27.0885 34.1785 27.136 34.0211 27.157C33.9542 27.199 33.8928 27.249 33.8381 27.3059L33.8371 27.302ZM47.6591 31.1618C47.7206 31.2234 47.7936 31.2723 47.874 31.3056C47.9544 31.339 48.0406 31.3562 48.1276 31.3562C48.2146 31.3562 48.3008 31.339 48.3812 31.3056C48.4616 31.2723 48.5346 31.2234 48.5961 31.1618L52.4621 27.2908C52.585 27.1688 52.6553 27.0039 52.6581 26.8308C52.6609 26.6577 52.5958 26.4902 52.4768 26.3645C52.3579 26.2387 52.1944 26.1645 52.0214 26.1577C51.8484 26.1508 51.6796 26.2119 51.5511 26.3279L47.6291 30.2549C47.5173 30.3821 47.4582 30.5472 47.4639 30.7165C47.4697 30.8858 47.5398 31.0464 47.6601 31.1658L47.6591 31.1618ZM42.9011 30.9499L45.5361 28.312C45.5701 28.276 45.6041 28.2388 45.6361 28.2038L49.5021 24.3318C49.5411 24.2928 49.5811 24.2548 49.6221 24.2178L52.2491 21.5879L47.7611 17.094L38.4101 26.4558L42.9011 30.9499ZM48.3211 13.1948C48.321 13.3249 48.3467 13.4538 48.3966 13.574C48.4466 13.6941 48.5198 13.803 48.6121 13.8948L55.4361 20.7268C55.6209 20.9114 55.8715 21.0151 56.1328 21.0149C56.394 21.0147 56.6445 20.9107 56.8291 20.7258C57.0137 20.541 57.1173 20.2905 57.1171 20.0293C57.1169 19.768 57.0129 19.5176 56.8281 19.333L50.0041 12.5019C49.9123 12.4099 49.8031 12.3369 49.683 12.2873C49.5629 12.2377 49.4341 12.2124 49.3041 12.2129H49.3001C49.04 12.2142 48.791 12.3187 48.6079 12.5034C48.4247 12.6881 48.3223 12.9379 48.3231 13.198L48.3211 13.1948ZM24.8161 13.521C25.1568 11.27 26.1673 9.17356 27.7161 7.50487C27.8258 7.39436 27.9261 7.27502 28.0161 7.14793C28.2942 6.38459 28.3177 5.55172 28.0831 4.77391L28.0711 4.75584C28.0464 4.76962 28.0232 4.78613 28.0021 4.80491C27.4985 5.35184 26.878 5.778 26.1868 6.05174C25.4956 6.32548 24.7516 6.43981 24.0101 6.38597C23.3256 6.25021 22.6824 5.95561 22.1324 5.52611C21.5824 5.0966 21.1408 4.54402 20.8431 3.91282C20.8281 3.88682 20.8301 3.89176 20.8201 3.87376C20.8256 3.82004 20.8197 3.7659 20.8029 3.71458C20.7861 3.66326 20.7587 3.61599 20.7226 3.57591C20.6864 3.53583 20.6422 3.50384 20.5929 3.48192C20.5435 3.45999 20.4901 3.44871 20.4361 3.44871C20.3821 3.44871 20.3287 3.45999 20.2793 3.48192C20.23 3.50384 20.1858 3.53583 20.1496 3.57591C20.1134 3.61599 20.086 3.66326 20.0692 3.71458C20.0524 3.7659 20.0466 3.82004 20.0521 3.87376C20.0431 3.89176 20.0451 3.88682 20.0301 3.91282C19.7324 4.54402 19.2908 5.0966 18.7408 5.52611C18.1908 5.95561 17.5476 6.25021 16.8631 6.38597C16.1213 6.43913 15.3772 6.32434 14.6859 6.05028C13.9946 5.77621 13.3739 5.34992 12.8701 4.80296C12.8489 4.7849 12.8262 4.76874 12.8021 4.75487L12.7901 4.77391C12.5561 5.55186 12.5799 6.38465 12.8581 7.14793C12.9458 7.27505 13.0441 7.39441 13.1521 7.50487C14.7018 9.17289 15.7125 11.2696 16.0521 13.521H24.8211H24.8161ZM9.78109 35.0278C9.78366 32.9216 10.4106 30.8635 11.5826 29.1135C12.7546 27.3635 14.4191 26.0003 16.3657 25.196C18.3124 24.3918 20.4537 24.1827 22.5191 24.5952C24.5846 25.0077 26.4813 26.0232 27.9697 27.5134C29.4582 29.0036 30.4714 30.9016 30.8814 32.9675C31.2913 35.0334 31.0796 37.1745 30.273 39.1201C29.4664 41.0657 28.1011 42.7288 26.3497 43.8987C24.5983 45.0685 22.5393 45.6929 20.4331 45.6929C17.6071 45.691 14.8976 44.5668 12.9002 42.5676C10.9029 40.5684 9.78127 37.8579 9.78206 35.032L9.78109 35.0278ZM12.6371 35.0278C12.6036 36.0726 12.7805 37.1135 13.1572 38.0886C13.5339 39.0637 14.1028 39.9532 14.83 40.7041C15.5573 41.455 16.428 42.0519 17.3905 42.4597C18.3531 42.8674 19.3877 43.0776 20.4331 43.0776C21.4784 43.0776 22.5131 42.8674 23.4756 42.4597C24.4381 42.0519 25.3089 41.455 26.0362 40.7041C26.7634 39.9532 27.3322 39.0637 27.7089 38.0886C28.0857 37.1135 28.2626 36.0726 28.2291 35.0278C28.2626 33.983 28.0857 32.9421 27.7089 31.967C27.3322 30.9919 26.7634 30.1027 26.0362 29.3518C25.3089 28.6009 24.4381 28.0037 23.4756 27.5959C22.5131 27.1882 21.4784 26.978 20.4331 26.978C19.3877 26.978 18.3531 27.1882 17.3905 27.5959C16.428 28.0037 15.5573 28.6009 14.83 29.3518C14.1028 30.1027 13.5339 30.9919 13.1572 31.967C12.7805 32.9421 12.6036 33.983 12.6371 35.0278ZM19.0051 40.449V40.3388C18.3904 40.07 17.8686 39.6259 17.5051 39.062C17.401 38.9059 17.3287 38.7306 17.2923 38.5466C17.2558 38.3626 17.256 38.1732 17.2928 37.9892C17.3296 37.8053 17.4022 37.6305 17.5066 37.4746C17.611 37.3187 17.745 37.1849 17.9011 37.0808C18.0572 36.9767 18.2322 36.9046 18.4162 36.8681C18.6002 36.8317 18.7896 36.8319 18.9736 36.8686C19.1575 36.9054 19.3325 36.9781 19.4884 37.0825C19.6442 37.1869 19.778 37.3207 19.8821 37.4768L19.9101 37.5188C19.9879 37.6392 20.1101 37.7241 20.2501 37.7549C20.2989 37.7487 20.3479 37.7451 20.3971 37.7439C20.5518 37.7141 20.6905 37.6295 20.7875 37.5054C20.8845 37.3813 20.9334 37.2261 20.9249 37.0688C20.9165 36.9115 20.8514 36.7624 20.7417 36.6494C20.632 36.5364 20.4851 36.4669 20.3281 36.4538H20.3221C19.5655 36.3871 18.8509 36.0769 18.2855 35.5698C17.72 35.0627 17.3341 34.386 17.1857 33.6411C17.0372 32.8962 17.1342 32.1234 17.462 31.4382C17.7898 30.7531 18.3309 30.1925 19.0041 29.8408V29.6089C19.0041 29.2301 19.1545 28.8669 19.4223 28.5991C19.6901 28.3313 20.0534 28.1809 20.4321 28.1809C20.8108 28.1809 21.1741 28.3313 21.4419 28.5991C21.7097 28.8669 21.8601 29.2301 21.8601 29.6089V29.72C22.473 29.9886 22.9931 30.432 23.3551 30.9949C23.4564 31.153 23.5255 31.3297 23.5586 31.5146C23.5917 31.6995 23.588 31.889 23.5478 32.0725C23.5076 32.256 23.4317 32.4298 23.3243 32.584C23.2169 32.7381 23.0803 32.8696 22.9221 32.9709C22.7639 33.0722 22.5873 33.1415 22.4024 33.1745C22.2175 33.2076 22.0279 33.2038 21.8444 33.1636C21.6609 33.1233 21.4872 33.0475 21.333 32.9402C21.1789 32.8328 21.0474 32.696 20.9461 32.5378C20.8685 32.4181 20.7472 32.3336 20.6081 32.302C20.5573 32.3082 20.5062 32.3115 20.4551 32.312C20.3002 32.3423 20.1616 32.4275 20.065 32.5522C19.9683 32.6769 19.9202 32.8325 19.9295 32.99C19.9387 33.1475 20.0048 33.2964 20.1154 33.4089C20.2261 33.5214 20.3738 33.5899 20.5311 33.6018C21.2952 33.6602 22.0193 33.9669 22.5929 34.4751C23.1665 34.9833 23.5582 35.665 23.7083 36.4165C23.8584 37.168 23.7587 37.9481 23.4243 38.6377C23.0899 39.3272 22.5392 39.8884 21.8561 40.2358V40.448C21.8561 40.8267 21.7056 41.1897 21.4378 41.4575C21.17 41.7253 20.8068 41.876 20.4281 41.876C20.0493 41.876 19.6862 41.7253 19.4184 41.4575C19.1506 41.1897 19.0001 40.8267 19.0001 40.448L19.0051 40.449Z" fill="white"/>
</svg>
