<svg width="90" height="90" viewBox="0 0 90 90" fill="none" xmlns="http://www.w3.org/2000/svg">
<path d="M49.4952 89.5229C49.237 89.5235 48.9828 89.4599 48.7552 89.3379L44.7342 87.1021L40.7123 89.2451C40.4637 89.3803 40.1826 89.4443 39.9 89.4302C39.6174 89.4161 39.3441 89.3243 39.1102 89.165C38.8763 89.0058 38.6907 88.7853 38.574 88.5276C38.4572 88.2698 38.4137 87.9849 38.4482 87.7041L39.2342 82.895L35.9212 79.5039C35.7252 79.3019 35.5888 79.0498 35.5271 78.7751C35.4654 78.5005 35.4808 78.214 35.5716 77.9475C35.6625 77.6811 35.8252 77.4449 36.0419 77.2651C36.2585 77.0854 36.5205 76.9691 36.7992 76.929L41.3132 76.2371L43.3323 71.9209C43.4551 71.6528 43.6523 71.4259 43.9005 71.2666C44.1487 71.1073 44.4374 71.0225 44.7323 71.0225C45.0272 71.0225 45.3158 71.1073 45.5639 71.2666C45.8121 71.4259 46.0093 71.6528 46.1322 71.9209L48.1512 76.2371L52.6653 76.929C52.9439 76.9691 53.2059 77.0854 53.4226 77.2651C53.6392 77.4449 53.802 77.6811 53.8928 77.9475C53.9837 78.214 53.9992 78.5005 53.9375 78.7751C53.8758 79.0498 53.7393 79.3019 53.5432 79.5039L50.2302 82.895L51.0172 87.7041C51.0582 87.9264 51.0496 88.1549 50.9923 88.3735C50.9349 88.5922 50.8302 88.7956 50.6854 88.9692C50.5406 89.1429 50.3594 89.2825 50.1545 89.3782C49.9497 89.4739 49.7263 89.5233 49.5002 89.5229H49.4952ZM45.4733 84.0039L47.4613 85.104L47.0613 82.6531C47.0217 82.4149 47.0388 82.1708 47.1111 81.9404C47.1833 81.7101 47.3088 81.4998 47.4773 81.3269L49.2342 79.5271L46.8762 79.1731C46.6278 79.1343 46.3926 79.0354 46.1911 78.885C45.9897 78.7346 45.828 78.5372 45.7202 78.3101L44.7352 76.199L43.6872 78.3101C43.5798 78.5372 43.4182 78.7346 43.2169 78.885C43.0156 79.0354 42.7805 79.1344 42.5322 79.1731L40.1742 79.5271L41.9313 81.3269C42.0995 81.4999 42.2249 81.7101 42.2971 81.9404C42.3694 82.1707 42.3866 82.4149 42.3473 82.6531L41.9473 85.104L43.9342 84.0039C44.1686 83.869 44.4343 83.7981 44.7047 83.7981C44.9751 83.7981 45.2408 83.869 45.4752 84.0039H45.4733ZM74.1472 78.7329C73.8893 78.7347 73.6351 78.6715 73.4082 78.5491L69.3862 76.314L65.3652 78.457C65.1165 78.5921 64.8353 78.656 64.5526 78.6418C64.2699 78.6277 63.9966 78.536 63.7626 78.3767C63.5286 78.2174 63.3429 77.9966 63.2261 77.7388C63.1092 77.4809 63.0657 77.196 63.1002 76.915L63.8872 72.106L60.5742 68.7151C60.378 68.5132 60.2415 68.261 60.1798 67.9863C60.1181 67.7117 60.1335 67.4253 60.2243 67.1589C60.3152 66.8925 60.478 66.6565 60.6947 66.4768C60.9114 66.2972 61.1736 66.181 61.4523 66.1411L65.9662 65.448L67.9842 61.1331C68.1071 60.865 68.3043 60.6378 68.5525 60.4785C68.8007 60.3193 69.0894 60.2346 69.3843 60.2346C69.6791 60.2346 69.9678 60.3193 70.2159 60.4785C70.4641 60.6378 70.6614 60.865 70.7843 61.1331L72.8032 65.448L77.3172 66.1411C77.5959 66.181 77.858 66.2972 78.0747 66.4768C78.2914 66.6565 78.4542 66.8925 78.545 67.1589C78.6359 67.4253 78.6513 67.7117 78.5896 67.9863C78.5278 68.261 78.3913 68.5132 78.1952 68.7151L74.8822 72.106L75.6682 76.915C75.7095 77.137 75.7013 77.3653 75.6444 77.5837C75.5875 77.8022 75.4832 78.0052 75.3389 78.1787C75.1945 78.3523 75.0137 78.4919 74.8093 78.5876C74.6049 78.6834 74.382 78.733 74.1562 78.7329H74.1472ZM70.1262 73.2161L72.1142 74.3101L71.7142 71.8579C71.6748 71.6201 71.6919 71.3763 71.7641 71.1462C71.8364 70.9162 71.9618 70.7065 72.1302 70.5339L73.8862 68.7339L71.5293 68.3799C71.2809 68.3409 71.0458 68.2422 70.8443 68.0918C70.6429 67.9414 70.4812 67.7441 70.3733 67.5171L69.3872 65.405L68.3402 67.5171C68.2323 67.7442 68.0707 67.9414 67.8692 68.0918C67.6678 68.2422 67.4326 68.341 67.1842 68.3799L64.8273 68.7339L66.5842 70.5339C66.7524 70.7066 66.8777 70.9165 66.9499 71.1465C67.0222 71.3765 67.0394 71.6201 67.0002 71.8579L66.6002 74.3101L68.5873 73.2161C68.8215 73.0807 69.0873 73.0093 69.3578 73.0093C69.6283 73.0093 69.8941 73.0807 70.1283 73.2161H70.1262ZM26.3833 77.1931C26.125 77.1938 25.8705 77.1299 25.6432 77.0071L21.6222 74.771L17.6002 76.9141C17.3516 77.0492 17.0706 77.1132 16.7879 77.0991C16.5053 77.085 16.2321 76.9932 15.9982 76.834C15.7642 76.6748 15.5788 76.4543 15.462 76.1965C15.3452 75.9388 15.3017 75.6539 15.3363 75.373L16.1222 70.563L12.8092 67.1731C12.6134 66.9711 12.4773 66.7189 12.4158 66.4443C12.3542 66.1698 12.3697 65.8835 12.4606 65.6172C12.5514 65.3509 12.7139 65.115 12.9304 64.9353C13.1469 64.7556 13.4088 64.6394 13.6872 64.5991L18.2013 63.906L20.2202 59.5911C20.3427 59.3226 20.5399 59.0951 20.7881 58.9355C21.0363 58.776 21.3252 58.6912 21.6202 58.6912C21.9153 58.6912 22.2042 58.776 22.4524 58.9355C22.7006 59.0951 22.8977 59.3226 23.0202 59.5911L25.0382 63.906L29.5532 64.5991C29.8318 64.6392 30.0938 64.7553 30.3104 64.9351C30.527 65.1148 30.6896 65.3508 30.7804 65.6172C30.8711 65.8836 30.8865 66.17 30.8247 66.4446C30.7629 66.7191 30.6264 66.9713 30.4303 67.1731L27.1183 70.563L27.9043 75.373C27.9452 75.5954 27.9367 75.824 27.8794 76.0427C27.822 76.2614 27.7172 76.4648 27.5724 76.6384C27.4276 76.8121 27.2463 76.9517 27.0415 77.0474C26.8367 77.1431 26.6133 77.1923 26.3872 77.1919L26.3833 77.1931ZM22.3612 71.6741L24.3492 72.7681L23.9492 70.3169C23.91 70.0789 23.9272 69.8351 23.9995 69.605C24.0717 69.3748 24.197 69.1648 24.3652 68.9919L26.1222 67.1919L23.7643 66.8379C23.516 66.799 23.281 66.7002 23.0797 66.5498C22.8784 66.3994 22.7169 66.2022 22.6092 65.9751L21.6233 63.863L20.5752 65.9751C20.4672 66.2021 20.3056 66.3994 20.1041 66.5498C19.9027 66.7002 19.6675 66.7989 19.4192 66.8379L17.0613 67.1919L18.8182 68.9919C18.9866 69.1647 19.112 69.3748 19.1843 69.605C19.2566 69.8352 19.2737 70.0789 19.2342 70.3169L18.8342 72.7681L20.8222 71.6741C21.0563 71.5387 21.3219 71.4673 21.5923 71.4673C21.8626 71.4673 22.1282 71.5387 22.3623 71.6741H22.3612ZM35.4892 60.238C34.8821 60.2379 34.281 60.1182 33.7202 59.8857C33.1594 59.6533 32.6498 59.3127 32.2206 58.8833C31.7914 58.4539 31.4509 57.9442 31.2187 57.3833C30.9865 56.8224 30.867 56.2211 30.8672 55.614V43.2839C30.867 42.6768 30.9865 42.0758 31.2187 41.5149C31.4509 40.954 31.7914 40.444 32.2206 40.0146C32.6498 39.5853 33.1594 39.2447 33.7202 39.0122C34.281 38.7798 34.8821 38.66 35.4892 38.6599V35.5769C35.4892 33.1251 36.4632 30.7737 38.1969 29.04C39.9306 27.3064 42.282 26.3325 44.7337 26.3325C47.1855 26.3325 49.5369 27.3064 51.2706 29.04C53.0043 30.7737 53.9783 33.1251 53.9783 35.5769V38.6599C54.5854 38.66 55.1865 38.7798 55.7473 39.0122C56.3081 39.2447 56.8177 39.5853 57.2469 40.0146C57.6761 40.444 58.0166 40.954 58.2488 41.5149C58.481 42.0758 58.6003 42.6768 58.6002 43.2839V55.614C58.6003 56.2211 58.481 56.8224 58.2488 57.3833C58.0166 57.9442 57.6761 58.4539 57.2469 58.8833C56.8177 59.3127 56.3081 59.6533 55.7473 59.8857C55.1865 60.1182 54.5854 60.2379 53.9783 60.238H35.4892ZM33.9482 43.2839V55.614C33.9482 56.0228 34.1106 56.4149 34.3995 56.7041C34.6885 56.9933 35.0805 57.1557 35.4892 57.156H53.9783C54.1807 57.156 54.3812 57.1161 54.5682 57.0386C54.7552 56.9611 54.9251 56.8475 55.0682 56.7043C55.2113 56.5611 55.3248 56.3912 55.4022 56.2041C55.4796 56.017 55.5194 55.8165 55.5193 55.614V43.2839C55.5194 43.0815 55.4796 42.8812 55.4022 42.6941C55.3248 42.507 55.2113 42.3368 55.0682 42.1936C54.9251 42.0504 54.7552 41.9369 54.5682 41.8594C54.3812 41.7819 54.1807 41.7419 53.9783 41.7419H35.4892C35.2867 41.7419 35.0861 41.7818 34.899 41.8594C34.7119 41.9369 34.542 42.0508 34.3989 42.1941C34.2558 42.3374 34.1423 42.5074 34.0649 42.6946C33.9876 42.8818 33.948 43.0814 33.9482 43.2839ZM38.5702 35.5769V38.6599H50.9003V35.5769C50.9003 33.9424 50.2509 32.3748 49.0951 31.219C47.9393 30.0632 46.3718 29.4141 44.7373 29.4141C43.1028 29.4141 41.5352 30.0632 40.3794 31.219C39.2236 32.3748 38.5742 33.9424 38.5742 35.5769H38.5702ZM42.0983 53.626L39.0162 50.543C38.8725 50.3993 38.7585 50.2287 38.6806 50.041C38.6028 49.8533 38.5628 49.6522 38.5627 49.449C38.5627 49.2458 38.6027 49.0445 38.6804 48.8567C38.7581 48.6689 38.8721 48.4982 39.0157 48.3545C39.1594 48.2108 39.33 48.0969 39.5177 48.019C39.7054 47.9412 39.9066 47.9009 40.1098 47.9009C40.3131 47.9008 40.5144 47.9408 40.7021 48.0186C40.8899 48.0963 41.0605 48.2103 41.2042 48.354L43.1922 50.354L48.2612 45.2661C48.553 44.9825 48.9446 44.8249 49.3515 44.8279C49.7584 44.8308 50.1478 44.9939 50.4354 45.2817C50.723 45.5696 50.8857 45.9591 50.8883 46.366C50.8909 46.7729 50.7331 47.1646 50.4492 47.4561L44.2862 53.6211L44.2772 53.6289C43.9872 53.9167 43.5946 54.0777 43.186 54.0762C42.7774 54.0747 42.3862 53.9111 42.0983 53.6211V53.626ZM84.9322 54.074C84.6743 54.0741 84.4204 54.0102 84.1932 53.8879L80.1712 51.6531L76.2273 53.7949C75.9785 53.93 75.6973 53.9942 75.4145 53.98C75.1318 53.9658 74.8585 53.8739 74.6245 53.7146C74.3905 53.5553 74.2049 53.3347 74.0881 53.0769C73.9713 52.8191 73.9278 52.5339 73.9623 52.2529L74.7483 47.4441L71.4353 44.054C71.2395 43.8519 71.1033 43.5997 71.0417 43.3252C70.9802 43.0507 70.9957 42.7646 71.0865 42.4983C71.1774 42.232 71.3399 41.9961 71.5564 41.8164C71.7728 41.6367 72.0348 41.5202 72.3132 41.48L76.8273 40.7859L78.8462 36.4709C78.9693 36.2032 79.1668 35.9764 79.4149 35.8174C79.663 35.6584 79.9515 35.574 80.2462 35.574C80.5409 35.574 80.8295 35.6584 81.0776 35.8174C81.3258 35.9764 81.5231 36.2032 81.6462 36.4709L83.6653 40.7859L88.1792 41.48C88.4613 41.5153 88.7273 41.6312 88.9453 41.8137C89.1633 41.9962 89.3242 42.2378 89.4086 42.5093C89.4929 42.7808 89.4973 43.0708 89.4211 43.3447C89.345 43.6187 89.1916 43.8649 88.9792 44.054L85.6662 47.4441L86.4523 52.2529C86.4932 52.4753 86.4847 52.7041 86.4274 52.9229C86.37 53.1416 86.2652 53.3449 86.1205 53.5186C85.9757 53.6923 85.7944 53.8322 85.5896 53.928C85.3848 54.0238 85.1614 54.0732 84.9353 54.073L84.9322 54.074ZM80.9883 48.5549L82.9752 49.6489L82.5752 47.199C82.5359 46.9608 82.5531 46.7169 82.6254 46.4866C82.6976 46.2563 82.8229 46.0461 82.9912 45.873L84.6703 44.073L82.3132 43.719C82.0647 43.6804 81.8295 43.5816 81.628 43.4312C81.4265 43.2807 81.2649 43.0832 81.1572 42.856L80.1712 40.7439L79.2013 42.856C79.0936 43.0832 78.932 43.2807 78.7305 43.4312C78.529 43.5816 78.2937 43.6804 78.0453 43.719L75.6872 44.073L77.4442 45.873C77.6127 46.046 77.7381 46.256 77.8104 46.4863C77.8827 46.7167 77.8997 46.9608 77.8602 47.199L77.4602 49.6489L79.4482 48.5549C79.6826 48.4199 79.9483 48.3489 80.2187 48.3489C80.4892 48.3489 80.7539 48.4199 80.9883 48.5549ZM14.0563 54.074C13.798 54.0742 13.5437 54.0103 13.3163 53.8879L9.29527 51.6531L5.27428 53.7949C5.02552 53.93 4.74437 53.9942 4.46165 53.98C4.17893 53.9658 3.90549 53.8739 3.67149 53.7146C3.4375 53.5553 3.25195 53.3347 3.13512 53.0769C3.01829 52.8191 2.97475 52.5339 3.00926 52.2529L3.79527 47.4441L0.482284 44.054C0.286491 43.8519 0.150263 43.5997 0.0887288 43.3252C0.0271946 43.0507 0.0427041 42.7646 0.133529 42.4983C0.224353 42.232 0.38691 41.9961 0.603377 41.8164C0.819844 41.6367 1.08178 41.5202 1.36021 41.48L5.87425 40.7859L7.89317 36.4709C8.01632 36.2032 8.21376 35.9764 8.4619 35.8174C8.71004 35.6584 8.99849 35.574 9.2932 35.574C9.5879 35.574 9.87648 35.6584 10.1246 35.8174C10.3728 35.9764 10.5701 36.2032 10.6932 36.4709L12.7113 40.7859L17.2262 41.48C17.5047 41.5201 17.7668 41.6365 17.9834 41.8162C18.1999 41.9959 18.3626 42.2319 18.4534 42.4983C18.5441 42.7647 18.5595 43.0509 18.4977 43.3254C18.4359 43.6 18.2994 43.8521 18.1033 44.054L14.7912 47.4441L15.5773 52.2529C15.6182 52.4753 15.6097 52.7041 15.5524 52.9229C15.495 53.1416 15.3902 53.3449 15.2455 53.5186C15.1007 53.6923 14.9194 53.8322 14.7146 53.928C14.5098 54.0238 14.2864 54.0732 14.0603 54.073L14.0563 54.074ZM10.0353 48.5549L12.0222 49.6489L11.6222 47.199C11.5829 46.9608 11.6001 46.7169 11.6723 46.4866C11.7446 46.2563 11.8699 46.0461 12.0382 45.873L13.7953 44.073L11.4372 43.719C11.1889 43.6805 10.9537 43.5816 10.7523 43.4312C10.551 43.2807 10.3896 43.0832 10.2822 42.856L9.29625 40.7439L8.31029 42.856C8.20278 43.0833 8.04111 43.281 7.83958 43.4314C7.63806 43.5818 7.40281 43.6805 7.15428 43.719L4.79722 44.073L6.49217 45.873C6.66066 46.046 6.78612 46.256 6.85838 46.4863C6.93065 46.7167 6.94771 46.9608 6.90819 47.199L6.50828 49.6489L8.4962 48.5549C8.73053 48.4199 8.99625 48.3489 9.26671 48.3489C9.53717 48.3489 9.80289 48.4199 10.0372 48.5549H10.0353ZM74.1472 29.4131C73.8893 29.4153 73.635 29.3519 73.4082 29.229L69.3862 26.9929L65.3652 29.166C65.1166 29.3014 64.8355 29.3658 64.5527 29.3518C64.2699 29.3378 63.9964 29.2462 63.7623 29.0869C63.5282 28.9277 63.3426 28.7069 63.2258 28.449C63.109 28.1911 63.0655 27.906 63.1002 27.625L63.8872 22.8159L60.5742 19.394C60.378 19.1922 60.2415 18.9399 60.1798 18.6653C60.1181 18.3907 60.1335 18.1043 60.2243 17.8379C60.3152 17.5715 60.478 17.3354 60.6947 17.1558C60.9114 16.9761 61.1736 16.86 61.4523 16.8201L65.9662 16.126L67.9842 11.811C68.1074 11.5433 68.3047 11.3165 68.5528 11.1575C68.801 10.9985 69.0896 10.9141 69.3843 10.9141C69.679 10.9141 69.9674 10.9985 70.2156 11.1575C70.4637 11.3165 70.6611 11.5433 70.7843 11.811L72.8032 16.126L77.3172 16.8201C77.5959 16.86 77.858 16.9761 78.0747 17.1558C78.2914 17.3354 78.4542 17.5715 78.545 17.8379C78.6359 18.1043 78.6513 18.3907 78.5896 18.6653C78.5278 18.9399 78.3913 19.1922 78.1952 19.394L74.8822 22.7839L75.6682 27.594C75.7091 27.8159 75.7007 28.0439 75.6437 28.2622C75.5866 28.4805 75.4823 28.6837 75.338 28.8572C75.1937 29.0306 75.013 29.1702 74.8088 29.2661C74.6046 29.362 74.3818 29.4119 74.1562 29.4121L74.1472 29.4131ZM70.1262 23.895L72.1142 24.989L71.7142 22.5391C71.6747 22.3009 71.6918 22.0568 71.764 21.8264C71.8363 21.5961 71.9617 21.3858 72.1302 21.2129L73.8862 19.4131L71.5293 19.0581C71.2809 19.0196 71.0457 18.9208 70.8442 18.7705C70.6427 18.6203 70.4811 18.4231 70.3733 18.196L69.3872 16.084L68.4022 18.196C68.2944 18.4231 68.1328 18.6203 67.9313 18.7705C67.7298 18.9208 67.4946 19.0196 67.2462 19.0581L64.8273 19.4131L66.5842 21.2129C66.7525 21.3859 66.8778 21.5961 66.9501 21.8264C67.0223 22.0567 67.0395 22.3009 67.0002 22.5391L66.6002 24.989L68.5873 23.895C68.8215 23.7597 69.0873 23.6885 69.3578 23.6885C69.6283 23.6885 69.8941 23.7597 70.1283 23.895H70.1262ZM24.8423 29.4131C24.584 29.4153 24.3294 29.3519 24.1023 29.229L20.0813 26.9929L16.0592 29.166C15.8106 29.3015 15.5296 29.366 15.2468 29.3521C14.964 29.3381 14.6906 29.2465 14.4565 29.0872C14.2225 28.9279 14.0369 28.7069 13.9203 28.449C13.8036 28.191 13.7604 27.9059 13.7953 27.625L14.5813 22.8159L11.2682 19.394C11.072 19.1922 10.9356 18.9399 10.8739 18.6653C10.8121 18.3907 10.8274 18.1043 10.9183 17.8379C11.0092 17.5715 11.1721 17.3354 11.3888 17.1558C11.6055 16.9761 11.8676 16.86 12.1462 16.8201L16.6603 16.126L18.6792 11.811C18.8023 11.5433 18.9998 11.3165 19.2479 11.1575C19.496 10.9985 19.7845 10.9141 20.0792 10.9141C20.3739 10.9141 20.6625 10.9985 20.9106 11.1575C21.1588 11.3165 21.3561 11.5433 21.4792 11.811L23.4972 16.126L28.0122 16.8201C28.2908 16.86 28.5531 16.9761 28.7698 17.1558C28.9865 17.3354 29.1492 17.5715 29.2401 17.8379C29.331 18.1043 29.3464 18.3907 29.2847 18.6653C29.2229 18.9399 29.0864 19.1922 28.8902 19.394L25.5773 22.7839L26.3633 27.594C26.4042 27.8159 26.3958 28.0439 26.3387 28.2622C26.2817 28.4805 26.1772 28.6837 26.0329 28.8572C25.8887 29.0306 25.7081 29.1702 25.5039 29.2661C25.2997 29.362 25.0768 29.4119 24.8512 29.4121L24.8423 29.4131ZM20.8213 23.895L22.8082 24.989L22.4082 22.5391C22.3689 22.3009 22.3861 22.0567 22.4584 21.8264C22.5306 21.5961 22.6559 21.3859 22.8242 21.2129L24.5813 19.4131L22.2232 19.0581C21.9749 19.0196 21.7397 18.9208 21.5382 18.7705C21.3367 18.6203 21.175 18.4231 21.0672 18.196L20.0813 16.084L19.0952 18.196C18.9875 18.4232 18.8259 18.6205 18.6244 18.7708C18.4229 18.921 18.1876 19.0197 17.9392 19.0581L15.5202 19.4131L17.2772 21.2129C17.4456 21.3858 17.571 21.5961 17.6433 21.8264C17.7156 22.0568 17.7327 22.3009 17.6932 22.5391L17.2932 24.989L19.2812 23.895C19.5155 23.7597 19.7812 23.6885 20.0517 23.6885C20.3223 23.6885 20.587 23.7597 20.8213 23.895ZM49.4952 18.625C49.2369 18.6257 48.9825 18.5617 48.7552 18.439L44.7342 16.2041L40.7123 18.377C40.4637 18.5121 40.1826 18.5761 39.9 18.562C39.6174 18.5479 39.3441 18.4563 39.1102 18.2971C38.8763 18.1379 38.6907 17.9172 38.574 17.6594C38.4572 17.4017 38.4137 17.1168 38.4482 16.8359L39.2342 12.0271L35.9212 8.60498C35.7251 8.4031 35.5886 8.15085 35.5268 7.87622C35.4651 7.6016 35.4805 7.31524 35.5714 7.04883C35.6623 6.78242 35.825 6.54635 36.0417 6.3667C36.2584 6.18705 36.5205 6.07093 36.7992 6.03101L41.3132 5.33691L43.3323 1.02295C43.4551 0.754873 43.6523 0.527673 43.9005 0.368408C44.1487 0.209143 44.4374 0.124512 44.7323 0.124512C45.0272 0.124512 45.3158 0.209143 45.5639 0.368408C45.8121 0.527673 46.0093 0.754873 46.1322 1.02295L48.1512 5.33691L52.6653 6.03101C52.9439 6.07093 53.206 6.18705 53.4227 6.3667C53.6394 6.54635 53.8022 6.78242 53.8931 7.04883C53.9839 7.31524 53.9993 7.6016 53.9376 7.87622C53.8759 8.15085 53.7394 8.4031 53.5432 8.60498L50.2302 11.9961L51.0172 16.8049C51.0583 17.0273 51.0501 17.2561 50.9928 17.4749C50.9355 17.6936 50.8306 17.8971 50.6858 18.0708C50.5409 18.2445 50.3597 18.3839 50.1548 18.4795C49.9499 18.5751 49.7264 18.6246 49.5002 18.624L49.4952 18.625ZM45.4733 13.1069L47.4613 14.2009L47.0613 11.751C47.0217 11.5128 47.0388 11.2687 47.1111 11.0383C47.1833 10.808 47.3088 10.598 47.4773 10.425L49.2342 8.625L46.8762 8.271C46.6278 8.23205 46.3927 8.13306 46.1913 7.98267C45.9898 7.83228 45.8281 7.635 45.7202 7.40796L44.7352 5.2959L43.7493 7.40796C43.6413 7.635 43.4796 7.83228 43.2782 7.98267C43.0767 8.13306 42.8416 8.23205 42.5932 8.271L40.2362 8.625L41.9313 10.425C42.0995 10.5981 42.2249 10.8083 42.2971 11.0386C42.3694 11.2689 42.3866 11.5128 42.3473 11.751L41.9473 14.2009L43.9342 13.1069C44.1684 12.9716 44.4342 12.9004 44.7047 12.9004C44.9752 12.9004 45.241 12.9716 45.4752 13.1069H45.4733Z" fill="white"/>
</svg>
